<?xml version="1.0" standalone="no"?>
<!DOCTYPE svg PUBLIC "-//W3C//DTD SVG 20010904//EN"
 "http://www.w3.org/TR/2001/REC-SVG-20010904/DTD/svg10.dtd">
<svg version="1.0" xmlns="http://www.w3.org/2000/svg"
 width="950.000000pt" height="506.000000pt" viewBox="0 0 950.000000 506.000000"
 preserveAspectRatio="xMidYMid meet">
<metadata>
Created by potrace 1.16, written by Peter Selinger 2001-2019
</metadata>
<g transform="translate(0.000000,506.000000) scale(0.100000,-0.100000)"
fill="#000000" stroke="none">
<path d="M3045 3368 c-37 -13 -72 -44 -91 -80 -18 -35 -20 -108 -4 -148 l13
-32 -99 -99 -100 -100 -34 18 c-51 26 -145 24 -191 -3 l-37 -22 -70 72 -71 71
11 40 c9 34 8 47 -7 79 -26 55 -68 78 -129 73 -42 -4 -55 -10 -83 -41 -28 -31
-33 -43 -33 -87 0 -46 4 -55 35 -85 41 -38 94 -52 132 -35 25 11 30 8 99 -60
l72 -72 -19 -36 c-10 -20 -19 -43 -19 -53 0 -14 -14 -17 -109 -17 l-109 -1
-23 48 c-59 118 -226 124 -294 9 -57 -98 -8 -214 105 -248 72 -22 159 21 194
96 l17 35 109 0 108 0 12 -36 c18 -53 68 -104 127 -131 l53 -23 -2 -110 -2
-110 -45 -22 c-160 -80 -93 -328 86 -315 94 7 153 72 153 170 0 67 -27 112
-88 145 l-42 23 0 114 0 113 26 6 c48 12 103 55 131 103 36 62 38 147 6 209
l-22 41 102 101 c71 71 106 99 113 92 6 -6 33 -13 60 -16 61 -8 120 18 156 68
18 26 23 46 23 98 0 56 -4 70 -28 102 -45 58 -121 81 -192 56z m-312 -522
c111 -85 49 -267 -91 -269 -64 -1 -109 26 -140 83 -40 75 -19 145 59 198 47
32 120 27 172 -12z"/>
<path d="M4490 3041 c-148 -47 -253 -160 -286 -308 -42 -188 52 -369 236 -457
58 -28 75 -31 155 -31 128 0 188 26 281 119 94 94 118 152 119 287 0 90 -2 99
-38 171 -90 183 -289 276 -467 219z m262 -57 c188 -95 266 -319 176 -501 -51
-103 -179 -194 -294 -209 -141 -17 -303 76 -372 216 -24 49 -27 66 -27 155 0
89 3 107 29 163 49 106 167 193 284 211 64 9 143 -4 204 -35z"/>
<path d="M3680 2650 c0 -349 2 -400 15 -400 13 0 15 28 15 195 l0 195 170 0
c107 0 170 4 170 10 0 11 -14 11 -212 11 l-128 -1 0 180 0 180 205 0 c176 0
205 2 205 15 0 13 -31 15 -220 15 l-220 0 0 -400z"/>
<path d="M5120 2651 c0 -375 1 -401 18 -401 15 0 17 13 15 153 l-1 154 121 2
122 1 118 -155 c83 -110 124 -155 138 -155 16 0 -4 31 -96 151 -63 83 -112
155 -109 160 3 5 13 9 22 9 50 0 137 86 157 154 20 67 19 105 -5 169 -24 64
-57 98 -125 128 -43 20 -71 23 -212 27 l-163 4 0 -401z m378 333 c74 -38 102
-89 102 -183 0 -78 -26 -132 -79 -168 -52 -35 -95 -43 -237 -43 l-132 0 0 215
0 216 145 -5 c136 -3 148 -6 201 -32z"/>
<path d="M5780 3035 c0 -12 37 -15 248 -17 l248 -3 -176 -255 c-96 -140 -215
-312 -263 -382 l-88 -128 296 0 c254 0 295 2 295 15 0 13 -38 15 -263 17
l-264 3 200 290 c109 160 228 332 263 383 l64 92 -280 0 c-241 0 -280 -2 -280
-15z"/>
<path d="M6450 2650 c0 -349 2 -400 15 -400 16 0 16 -6 16 375 0 428 0 425
-16 425 -13 0 -15 -51 -15 -400z"/>
<path d="M6600 3035 c0 -16 2 -16 173 -17 l67 0 0 -384 c0 -335 2 -384 15
-384 18 0 16 -44 17 398 l1 373 76 -1 c144 -3 161 -1 161 15 0 13 -35 15 -255
15 -220 0 -255 -2 -255 -15z"/>
<path d="M7230 2650 l0 -400 225 0 c193 0 225 2 225 15 0 13 -30 15 -209 15
l-209 0 2 173 1 172 163 3 c154 2 162 4 162 22 0 19 -7 20 -164 20 l-163 0 -1
174 0 175 204 -2 c188 -2 204 -1 204 16 0 16 -17 17 -220 17 l-220 0 0 -400z"/>
</g>
</svg>
