<?xml version="1.0" standalone="no"?>
<!DOCTYPE svg PUBLIC "-//W3C//DTD SVG 20010904//EN"
 "http://www.w3.org/TR/2001/REC-SVG-20010904/DTD/svg10.dtd">
<svg version="1.0" xmlns="http://www.w3.org/2000/svg"
 width="1082.000000pt" height="790.000000pt" viewBox="0 0 1082.000000 790.000000"
 preserveAspectRatio="xMidYMid meet">
<metadata>
Created by potrace 1.16, written by Peter Selinger 2001-2019
</metadata>
<g transform="translate(0.000000,790.000000) scale(0.100000,-0.100000)"
fill="#000000" stroke="none">
<path d="M4528 6251 c-488 -345 -891 -631 -895 -636 -4 -4 8 1 27 12 19 12
420 251 891 532 471 280 861 511 866 513 6 2 1061 -622 1793 -1061 23 -13 24
-13 10 1 -20 21 -1775 1257 -1792 1262 -7 2 -412 -278 -900 -623z"/>
<path d="M5830 5057 c-70 -37 -96 -108 -69 -186 12 -33 11 -34 -76 -121 l-88
-88 -33 14 c-47 20 -123 18 -166 -5 l-37 -18 -58 59 c-57 58 -58 59 -58 118 0
54 -3 63 -33 92 -27 27 -40 33 -76 33 -112 0 -161 -114 -86 -198 26 -29 33
-32 89 -32 60 0 60 0 120 -59 57 -56 58 -59 45 -85 -7 -14 -15 -34 -18 -43 -5
-16 -19 -18 -103 -18 l-98 0 -17 40 c-32 77 -131 104 -212 57 -71 -40 -93
-114 -57 -194 53 -116 217 -116 274 0 l19 37 94 0 95 0 18 -43 c22 -50 81
-105 122 -114 l29 -5 0 -104 0 -104 -40 -20 c-77 -39 -104 -135 -59 -210 27
-44 44 -57 92 -70 78 -22 165 27 186 106 19 71 -22 156 -89 184 l-30 12 0 99
0 98 47 21 c59 26 80 45 104 92 24 47 24 121 0 174 l-19 42 87 86 87 87 45
-10 c149 -34 257 127 162 240 -53 62 -120 75 -193 36z m-297 -438 c96 -49 114
-151 41 -225 -29 -29 -42 -34 -80 -34 -86 0 -144 51 -144 127 0 24 7 57 15 74
30 57 113 86 168 58z"/>
<path d="M4195 3366 c-155 -49 -253 -169 -263 -320 -15 -245 212 -438 439
-372 244 72 343 356 194 559 -87 118 -242 174 -370 133z m217 -53 c60 -27 133
-95 163 -152 39 -77 37 -200 -6 -287 -29 -57 -106 -129 -167 -157 -108 -48
-252 -17 -344 75 -144 143 -122 379 46 495 99 68 196 76 308 26z"/>
<path d="M5380 3315 l0 -64 155 -3 155 -3 -141 -250 c-77 -137 -151 -269 -165
-292 l-25 -43 291 0 290 0 0 65 0 65 -165 0 c-91 0 -165 2 -165 4 0 4 280 502
312 554 l20 32 -281 0 -281 0 0 -65z"/>
<path d="M6040 3020 l0 -360 75 0 75 0 0 360 0 360 -75 0 -75 0 0 -360z"/>
<path d="M6290 3310 l0 -70 90 0 90 0 0 -290 0 -290 75 0 75 0 0 290 0 290 90
0 90 0 0 70 0 70 -255 0 -255 0 0 -70z"/>
<path d="M6900 3020 l0 -360 230 0 230 0 0 70 0 70 -150 0 -150 0 0 75 0 74
108 3 107 3 3 68 3 67 -111 0 -110 0 0 75 0 75 145 0 145 0 0 70 0 70 -225 0
-225 0 0 -360z"/>
<path d="M3480 3020 c0 -304 2 -350 15 -350 13 0 15 26 15 170 l0 170 150 0
c127 0 150 2 150 15 0 13 -23 15 -150 15 l-150 0 0 150 0 150 177 2 c130 2
177 6 181 16 3 9 -40 12 -192 12 l-196 0 0 -350z"/>
<path d="M4740 3021 c0 -305 2 -351 15 -351 13 0 15 22 15 135 l0 135 108 0
107 0 100 -135 c60 -81 107 -134 118 -135 9 0 17 3 17 6 0 3 -43 61 -95 129
-52 68 -95 127 -95 132 0 4 20 16 45 27 153 62 163 288 17 374 -45 26 -54 27
-199 30 l-153 4 0 -351z m292 309 c80 -23 131 -91 130 -176 0 -56 -17 -97 -54
-131 -45 -42 -89 -53 -218 -53 l-120 0 0 185 0 185 113 0 c61 0 129 -5 149
-10z"/>
<path d="M6320 1791 c-501 -408 -899 -725 -905 -721 -5 4 -405 308 -888 674
-484 367 -880 666 -882 664 -2 -2 397 -351 887 -777 l890 -773 27 25 c14 13
406 374 871 802 899 827 907 835 900 835 -3 0 -408 -328 -900 -729z"/>
</g>
</svg>
